<svg width="41" height="41" viewBox="0 0 41 41" fill="none" xmlns="http://www.w3.org/2000/svg">
<circle cx="22.0805" cy="20.2914" r="11.1664" fill="white"/>
<path d="M36.0171 16.3855C35.4321 15.7755 34.8271 15.1448 34.5986 14.5922C34.3885 14.0845 34.3758 13.2436 34.3635 12.4303C34.3407 10.9168 34.3148 9.20144 33.1222 8.00889C31.9297 6.81634 30.2143 6.79044 28.7008 6.76757C27.8875 6.7553 27.0466 6.74258 26.539 6.53251C25.9864 6.30397 25.3556 5.69906 24.7456 5.11399C23.674 4.08622 22.4592 2.92139 20.8397 2.92139C19.2202 2.92139 18.0056 4.08622 16.9339 5.11399C16.3238 5.69906 15.6932 6.30397 15.1405 6.53251C14.6328 6.74258 13.7919 6.7553 12.9786 6.76757C11.4652 6.79044 9.74978 6.81634 8.55723 8.00889C7.36468 9.20144 7.33878 10.9168 7.31591 12.4303C7.30364 13.2436 7.29092 14.0845 7.08085 14.5922C6.85231 15.1447 6.2474 15.7755 5.66233 16.3855C4.63456 17.4571 3.46973 18.6719 3.46973 20.2914C3.46973 21.9109 4.63456 23.1256 5.66233 24.1972C6.2474 24.8073 6.85231 25.438 7.08085 25.9906C7.29092 26.4983 7.30364 27.3392 7.31591 28.1525C7.33878 29.666 7.36468 31.3813 8.55723 32.5739C9.74978 33.7664 11.4652 33.7923 12.9786 33.8152C13.7919 33.8275 14.6328 33.8402 15.1405 34.0503C15.693 34.2788 16.3238 34.8837 16.9339 35.4688C18.0054 36.4965 19.2202 37.6614 20.8397 37.6614C22.4592 37.6614 23.6739 36.4965 24.7456 35.4688C25.3556 34.8837 25.9863 34.2788 26.539 34.0503C27.0466 33.8402 27.8875 33.8275 28.7008 33.8152C30.2143 33.7923 31.9297 33.7664 33.1222 32.5739C34.3148 31.3813 34.3407 29.666 34.3635 28.1525C34.3758 27.3392 34.3885 26.4983 34.5986 25.9906C34.8271 25.4381 35.432 24.8073 36.0171 24.1972C37.0449 23.1257 38.2097 21.9109 38.2097 20.2914C38.2097 18.6719 37.0449 17.4572 36.0171 16.3855ZM28.5203 17.4668L19.4217 26.1518C19.1909 26.372 18.8841 26.495 18.565 26.495C18.246 26.495 17.9392 26.372 17.7084 26.1518L13.1592 21.8093C13.0412 21.6968 12.9466 21.5622 12.8807 21.4131C12.8148 21.2641 12.7789 21.1035 12.7751 20.9406C12.7713 20.7776 12.7996 20.6156 12.8584 20.4636C12.9172 20.3116 13.0054 20.1727 13.118 20.0548C13.2305 19.9369 13.3651 19.8423 13.5142 19.7765C13.6633 19.7107 13.8239 19.6748 13.9868 19.6711C14.1497 19.6673 14.3118 19.6957 14.4637 19.7545C14.6157 19.8134 14.7546 19.9017 14.8724 20.0142L18.565 23.539L26.807 15.6717C26.9249 15.5592 27.0637 15.4709 27.2157 15.412C27.3677 15.3532 27.5297 15.3248 27.6927 15.3286C27.8556 15.3323 28.0162 15.3682 28.1653 15.434C28.3143 15.4998 28.449 15.5944 28.5615 15.7123C28.674 15.8302 28.7622 15.9691 28.821 16.1211C28.8799 16.2731 28.9082 16.4351 28.9043 16.5981C28.9005 16.761 28.8646 16.9216 28.7987 17.0706C28.7328 17.2197 28.6382 17.3543 28.5203 17.4668Z" fill="#DAA520"/>
</svg>
