<svg width="24" height="25" viewBox="0 0 24 25" fill="none" xmlns="http://www.w3.org/2000/svg">
<path opacity="0.2" d="M12 21.053C16.9706 21.053 21 17.0235 21 12.053C21 7.08242 16.9706 3.05298 12 3.05298C7.02944 3.05298 3 7.08242 3 12.053C3 17.0235 7.02944 21.053 12 21.053Z" fill="#495ECA"/>
<path d="M16.125 9.80298L10.625 15.053L7.875 12.428" stroke="#495ECA" stroke-width="1.32" stroke-linecap="round" stroke-linejoin="round"/>
<path d="M12 21.053C16.9706 21.053 21 17.0235 21 12.053C21 7.08242 16.9706 3.05298 12 3.05298C7.02944 3.05298 3 7.08242 3 12.053C3 17.0235 7.02944 21.053 12 21.053Z" stroke="#495ECA" stroke-width="1.32" stroke-linecap="round" stroke-linejoin="round"/>
</svg>
