<svg width="289" height="289" viewBox="0 0 289 289" fill="none" xmlns="http://www.w3.org/2000/svg">
<path d="M270.76 112.007C265.893 106.932 260.86 101.686 258.959 97.0885C257.212 92.8651 257.106 85.8699 257.004 79.1041C256.814 66.5135 256.598 52.2434 246.677 42.3226C236.757 32.4019 222.487 32.1864 209.896 31.9962C203.13 31.8941 196.135 31.7883 191.912 30.0407C187.315 28.1395 182.068 23.1073 176.993 18.2402C168.079 9.6902 157.973 0 144.5 0C131.027 0 120.923 9.6902 112.007 18.2402C106.932 23.1073 101.686 28.1395 97.0885 30.0407C92.8651 31.7883 85.8699 31.8941 79.1041 31.9962C66.5135 32.1864 52.2434 32.4019 42.3226 42.3226C32.4019 52.2434 32.1864 66.5135 31.9962 79.1041C31.8941 85.8699 31.7883 92.8651 30.0407 97.0885C28.1395 101.685 23.1073 106.932 18.2402 112.007C9.6902 120.921 0 131.027 0 144.5C0 157.973 9.6902 168.077 18.2402 176.993C23.1073 182.068 28.1395 187.314 30.0407 191.912C31.7883 196.135 31.8941 203.13 31.9962 209.896C32.1864 222.487 32.4019 236.757 42.3226 246.677C52.2434 256.598 66.5135 256.814 79.1041 257.004C85.8699 257.106 92.8651 257.212 97.0885 258.959C101.685 260.86 106.932 265.893 112.007 270.76C120.921 279.31 131.027 289 144.5 289C157.973 289 168.077 279.31 176.993 270.76C182.068 265.893 187.314 260.86 191.912 258.959C196.135 257.212 203.13 257.106 209.896 257.004C222.487 256.814 236.757 256.598 246.677 246.677C256.598 236.757 256.814 222.487 257.004 209.896C257.106 203.13 257.212 196.135 258.959 191.912C260.86 187.315 265.893 182.068 270.76 176.993C279.31 168.079 289 157.973 289 144.5C289 131.027 279.31 120.923 270.76 112.007Z" fill="#272D4D"/>
<g clip-path="url(#clip0_231_937)">
<rect x="48" y="47.6558" width="193" height="193" rx="96.5" fill="white"/>
<rect x="48" y="47.6558" width="193.344" height="193.344" fill="#F9EFE4"/>
<path d="M158.617 176.775C154.498 176.651 142.278 172.751 139.848 170.951L158.617 176.775Z" fill="#EB8682"/>
<path d="M160.312 195.996C167.91 206.639 192.48 209.799 196.672 211.32C203.548 213.925 204.718 220.97 204.819 224.807C205.113 235.74 206.396 254.495 202.559 264.406" fill="#EB8682"/>
<path d="M160.312 195.996C155.701 187.686 158.617 176.775 158.617 176.775C158.617 176.775 167.549 177.201 171.131 175.368C178.018 172.399 186.199 161.54 186.114 145.992C185.919 131.99 182.975 118.165 177.453 105.309C172.47 92.3606 141.549 80.2584 118.255 102.873C118.255 102.873 105.696 114.408 112.99 133.577" fill="#EB8682"/>
<path d="M76.797 264.406C73.4806 253.729 74.7857 225.653 75.2659 221.691C75.7461 217.729 77.5992 209.691 87.4128 207.244C91.7518 206.149 118.922 201.735 124.436 194.077" fill="#EB8682"/>
<path d="M125.769 165.127C125.769 165.127 116.645 159.922 113.006 149.069C109.368 138.215 112.99 133.577 112.99 133.577C115.91 129.201 127.532 128.128 127.532 141.332" fill="#EB8682"/>
<path d="M125.769 165.127C126.464 178.921 126.639 185.25 124.436 194.077L125.769 165.127Z" fill="#EB8682"/>
<path d="M160.312 195.996C167.91 206.639 192.48 209.799 196.672 211.32C203.548 213.925 204.718 220.97 204.819 224.807C205.113 235.74 206.396 254.495 202.559 264.406H76.797C73.4806 253.729 74.7857 225.653 75.2659 221.691C75.7461 217.729 77.5992 209.691 87.4128 207.244C91.7518 206.149 118.922 201.735 124.436 194.077C126.639 185.25 126.464 178.921 125.769 165.127C125.769 165.127 116.645 159.922 113.006 149.069C109.368 138.215 112.99 133.577 112.99 133.577C105.696 114.408 118.255 102.873 118.255 102.873C141.549 80.2584 172.47 92.3606 177.453 105.309C182.975 118.165 185.919 131.99 186.114 145.992C186.199 161.54 178.018 172.399 171.131 175.368C167.549 177.201 158.617 176.775 158.617 176.775C158.617 176.775 155.701 187.686 160.312 195.996Z" fill="#EB8682"/>
<path opacity="0.4" d="M158.486 176.338C157.939 180.202 157.091 185.878 158.486 190.419C153.316 189.187 138.723 179.052 138.723 170.821C145.108 173.326 151.73 175.175 158.486 176.338Z" fill="#050504"/>
<path d="M119.648 136.776C117.445 137.378 115.942 140.722 117.694 144.326" stroke="#050504" stroke-width="1.70598" stroke-linecap="round"/>
<path d="M74.207 217.434C73.7245 221.396 72.4133 249.472 75.7454 260.149H202.103C205.958 250.238 204.669 231.483 204.374 220.55C204.272 216.713 203.097 209.668 196.188 207.063C192.332 205.67 172.028 203.534 162.665 194.96C162.665 194.96 162.949 200.921 141.378 200.921C119.808 200.921 120.038 193.37 120.038 193.37C110.856 199.077 90.17 202.042 86.4114 202.987C76.5514 205.433 74.6895 213.471 74.207 217.434Z" fill="#767B99" stroke="#050504" stroke-width="1.70598" stroke-linecap="round" stroke-linejoin="round"/>
<path d="M162.477 195.284C162.477 197.897 156.531 200.783 148.258 201.862C146.11 202.142 143.805 202.3 141.406 202.3C140.816 202.3 140.229 202.289 139.649 202.267C128.784 201.863 119.807 197.802 119.807 194.676" fill="#F9EFE4"/>
<path d="M120.335 184.061C120.341 184.122 120.346 184.182 120.351 184.242C120.656 187.793 120.139 191.117 119.807 194.676" fill="#F9EFE4"/>
<path d="M162.477 184.061C162.472 184.122 162.466 184.184 162.461 184.245C162.148 187.746 162.154 191.803 162.477 195.284" fill="#F9EFE4"/>
<path d="M123.78 186.569C124.118 190.188 123.705 194.716 123.367 198.335Z" fill="#F9EFE4"/>
<path d="M139.647 188.636C139.984 193.174 139.984 197.73 139.649 202.267C139.648 202.276 139.647 202.285 139.647 202.294" fill="#F9EFE4"/>
<path d="M127.573 187.513C127.891 191.066 127.55 196.797 127.186 199.981Z" fill="#F9EFE4"/>
<path d="M131.444 188.094C131.762 191.647 131.228 197.874 130.876 201.058Z" fill="#F9EFE4"/>
<path d="M135.505 188.455C135.823 192.008 135.493 198.678 135.141 201.863Z" fill="#F9EFE4"/>
<path d="M143.972 188.625C144.31 193.031 144.31 197.833 143.972 202.239Z" fill="#F9EFE4"/>
<path d="M148.258 188.389C148.593 192.753 148.593 197.497 148.258 201.862L148.258 201.863" fill="#F9EFE4"/>
<path d="M152.175 187.995C152.51 192.243 152.51 196.91 152.175 201.159Z" fill="#F9EFE4"/>
<path d="M155.893 187.383C156.228 191.433 156.228 196.07 155.893 200.12Z" fill="#F9EFE4"/>
<path d="M159.105 186.616C159.443 190.667 159.443 194.74 159.105 198.792Z" fill="#F9EFE4"/>
<path fill-rule="evenodd" clip-rule="evenodd" d="M162.477 184.061C162.477 184.123 162.472 184.184 162.461 184.245C162.466 184.184 162.472 184.122 162.477 184.061ZM152.175 187.995C152.182 187.994 152.19 187.993 152.197 187.992C152.242 187.986 152.287 187.98 152.332 187.974M120.351 184.242C120.341 184.182 120.335 184.122 120.335 184.061C120.341 184.122 120.346 184.182 120.351 184.242Z" fill="#F9EFE4"/>
<path d="M148.258 201.862C156.531 200.783 162.477 197.897 162.477 195.284C162.154 191.803 162.148 187.746 162.461 184.245C162.172 185.826 158.188 187.201 152.332 187.974C152.287 187.98 152.242 187.986 152.197 187.992C152.19 187.993 152.182 187.994 152.175 187.995C150.944 188.154 149.633 188.286 148.258 188.389C148.593 192.753 148.593 197.497 148.258 201.862Z" fill="#F9EFE4"/>
<path d="M139.649 202.267C140.229 202.289 140.816 202.3 141.406 202.3C142.275 202.3 143.131 202.279 143.972 202.239C145.453 202.169 146.888 202.04 148.258 201.862C148.593 197.497 148.593 192.753 148.258 188.389C146.11 188.549 143.805 188.636 141.406 188.636C139.358 188.636 137.377 188.573 135.505 188.455C134.219 188.373 132.985 188.266 131.814 188.136C131.69 188.122 131.566 188.108 131.444 188.094C128.342 187.731 125.705 187.205 123.78 186.569C121.745 185.896 120.505 185.099 120.351 184.242C120.656 187.793 120.139 191.117 119.807 194.676C119.807 197.802 128.784 201.863 139.649 202.267Z" fill="#F9EFE4"/>
<path d="M158.072 181.263C160.831 182.035 162.477 183.005 162.477 184.061M162.477 184.061C162.477 184.123 162.472 184.184 162.461 184.245M162.477 184.061C162.472 184.122 162.466 184.184 162.461 184.245M141.406 188.636C137.952 188.636 134.691 188.456 131.814 188.136M141.406 188.636C145.35 188.636 149.041 188.401 152.197 187.992M141.406 188.636C143.805 188.636 146.11 188.549 148.258 188.389M141.406 188.636C139.358 188.636 137.377 188.573 135.505 188.455M120.335 184.061C120.335 183.005 121.981 182.035 124.751 181.257M120.335 184.061C120.335 184.122 120.341 184.182 120.351 184.242M120.335 184.061C120.341 184.122 120.346 184.182 120.351 184.242M141.406 202.3C143.805 202.3 146.11 202.142 148.258 201.862M141.406 202.3C140.816 202.3 140.229 202.289 139.649 202.267M141.406 202.3C142.275 202.3 143.131 202.279 143.972 202.239M123.78 186.569C124.118 190.188 123.705 194.716 123.367 198.335M123.78 186.569C125.705 187.205 128.342 187.731 131.444 188.094M123.78 186.569C121.745 185.896 120.505 185.099 120.351 184.242M139.647 188.636C139.984 193.174 139.984 197.73 139.649 202.267M139.647 202.294C139.647 202.285 139.648 202.276 139.649 202.267M127.573 187.513C127.891 191.066 127.55 196.797 127.186 199.981M131.444 188.094C131.762 191.647 131.228 197.874 130.876 201.058M131.444 188.094C131.566 188.108 131.69 188.122 131.814 188.136M135.505 188.455C135.823 192.008 135.493 198.678 135.141 201.863M135.505 188.455C134.219 188.373 132.985 188.266 131.814 188.136M143.972 188.625C144.31 193.031 144.31 197.833 143.972 202.239M143.972 202.239C145.453 202.169 146.888 202.04 148.258 201.862M148.258 188.389C149.633 188.286 150.944 188.154 152.175 187.995M148.258 188.389C148.593 192.753 148.593 197.497 148.258 201.862M148.258 201.863L148.258 201.862M152.175 187.995C152.51 192.243 152.51 196.91 152.175 201.159M152.175 187.995C152.182 187.994 152.19 187.993 152.197 187.992M155.893 187.383C156.228 191.433 156.228 196.07 155.893 200.12M159.105 186.616C159.443 190.667 159.443 194.74 159.105 198.792M162.461 184.245C162.148 187.746 162.154 191.803 162.477 195.284C162.477 197.897 156.531 200.783 148.258 201.862M162.461 184.245C162.172 185.826 158.188 187.201 152.332 187.974C152.287 187.98 152.242 187.986 152.197 187.992M131.814 188.136C125.232 187.404 120.656 185.942 120.351 184.242M120.351 184.242C120.656 187.793 120.139 191.117 119.807 194.676C119.807 197.802 128.784 201.863 139.649 202.267" stroke="#050504" stroke-width="1.70598" stroke-linecap="round" stroke-linejoin="round"/>
<path d="M125.483 186.445L125.597 181.053C124.168 181.161 120.658 182.334 120.658 183.891C120.658 185.448 124.15 186.337 125.483 186.445Z" fill="#050504"/>
<path d="M157.272 186.445L157.242 181.337C158.671 181.445 161.813 182.334 161.813 183.891C161.813 185.448 158.605 186.337 157.272 186.445Z" fill="#050504"/>
<path d="M126.664 132.135C128.515 133.86 131.184 133.444 132.903 131.802C136.116 128.717 137.297 122.791 134.056 119.307C133.831 119.048 133.666 118.743 133.571 118.412C133.476 118.081 133.454 117.733 133.507 117.393C133.793 115.001 136.555 112.305 138.934 112.061C142.619 111.672 145.832 112.982 148.886 114.874C152.093 116.882 155.114 119.163 158.684 120.467C167.73 123.796 176.595 122.93 185.047 118.619C193.643 114.241 196.812 107.134 194.631 97.6572C193.083 90.927 188.777 86.3163 182.883 83.1371C179.313 81.2062 175.414 80.4183 171.399 80.1409C165.192 79.7192 159.178 80.3296 153.642 83.5033C153.454 83.6456 153.235 83.7392 153.003 83.776C152.772 83.8127 152.535 83.7915 152.313 83.7141C148.073 82.1217 143.64 82.0884 139.219 82.2382C133.969 82.4137 128.752 83.1578 123.659 84.4576C115.832 86.3534 108.622 90.2599 102.728 95.7985C96.9281 101.303 92.8418 107.911 89.9913 115.407C85.8226 126.437 86.2016 137.323 90.6064 148.142C92.8802 153.729 96.0988 158.812 98.9822 164.066C99.8775 165.697 101.179 167.156 101.586 168.993C102.07 171.468 102.129 174.01 101.761 176.505C100.981 182.193 98.8449 187.391 96.1921 192.418C92.9242 198.605 89.2443 204.564 86.1906 210.867C82.5491 218.418 80.0007 226.186 80.2973 234.642C80.1974 237.396 80.3963 240.153 80.8905 242.864C82.1757 250.676 86.7892 256.513 92.1937 261.757C95.7637 265.213 100.191 267.227 105.084 268.121C109.863 268.997 114.641 269.874 119.535 269.23C124.62 268.576 128.542 266.14 130.849 261.435C131.896 259.292 132.822 257.092 133.622 254.843C136.209 247.63 135.353 240.878 130.376 234.897C128.075 232.123 125.664 229.432 123.753 226.347C122.176 223.811 120.908 221.103 121.166 218.057C121.328 215.084 122.384 212.231 124.192 209.879C129.619 203.165 132.606 196.624 133.161 188.102C133.496 182.903 134.386 176.511 132.013 171.928C130.679 169.348 128.608 167.245 125.708 165.059C122.808 162.873 118.277 158.401 116.701 155.954C113.323 150.289 112.817 148.436 111.812 141.612C111.351 138.493 112.18 132.773 115.921 130.781C119.6 128.934 123.582 129.189 126.664 132.135Z" fill="#050504" stroke="black" stroke-width="1.70598" stroke-linecap="round" stroke-linejoin="round"/>
<path d="M167.629 138.171C167.44 137.739 166.937 137.543 166.506 137.732C166.074 137.921 165.878 138.424 166.067 138.855L167.629 138.171ZM167.878 152.817C167.448 153.009 167.255 153.514 167.448 153.944C167.64 154.374 168.144 154.566 168.575 154.374L167.878 152.817ZM141.241 125.674C140.937 126.034 140.983 126.572 141.344 126.876C141.704 127.179 142.242 127.133 142.546 126.773L141.241 125.674ZM154.261 120.888L154.404 120.047L154.398 120.046L154.261 120.888ZM155.822 122.187C156.264 122.351 156.755 122.126 156.919 121.684C157.083 121.242 156.858 120.752 156.416 120.588L155.822 122.187ZM168.792 122.047C168.444 122.365 168.421 122.904 168.739 123.252C169.057 123.599 169.596 123.623 169.944 123.305L168.792 122.047ZM180.803 119.991L181.162 119.217L181.161 119.216L180.803 119.991ZM181.775 121.563C182.151 121.847 182.686 121.772 182.97 121.396C183.253 121.02 183.179 120.485 182.802 120.201L181.775 121.563ZM166.848 138.513C166.067 138.855 166.067 138.855 166.067 138.855C166.067 138.856 166.067 138.856 166.067 138.856C166.067 138.856 166.067 138.857 166.067 138.857C166.068 138.859 166.069 138.86 166.07 138.863C166.072 138.868 166.076 138.876 166.08 138.886C166.089 138.907 166.103 138.938 166.12 138.978C166.155 139.059 166.207 139.177 166.273 139.328C166.404 139.631 166.592 140.064 166.817 140.589C167.268 141.638 167.869 143.049 168.469 144.499C169.071 145.95 169.668 147.434 170.115 148.63C170.339 149.229 170.521 149.746 170.646 150.147C170.708 150.348 170.754 150.51 170.783 150.633C170.815 150.773 170.814 150.81 170.814 150.786H172.52C172.52 150.602 172.481 150.405 172.443 150.243C172.402 150.066 172.343 149.861 172.274 149.639C172.136 149.195 171.941 148.644 171.713 148.033C171.256 146.809 170.649 145.304 170.046 143.846C169.441 142.387 168.837 140.968 168.385 139.915C168.158 139.388 167.969 138.953 167.837 138.648C167.771 138.496 167.719 138.377 167.684 138.296C167.666 138.255 167.652 138.224 167.643 138.203C167.639 138.192 167.635 138.184 167.633 138.179C167.632 138.176 167.631 138.174 167.63 138.173C167.63 138.172 167.63 138.172 167.629 138.171C167.629 138.171 167.629 138.171 167.629 138.171C167.629 138.171 167.629 138.171 166.848 138.513ZM170.814 150.786C170.814 150.744 170.818 150.866 170.526 151.158C170.268 151.417 169.898 151.689 169.491 151.946C169.09 152.199 168.685 152.418 168.377 152.575C168.224 152.653 168.097 152.714 168.009 152.756C167.965 152.777 167.931 152.793 167.909 152.803C167.898 152.808 167.889 152.812 167.884 152.814C167.882 152.815 167.88 152.816 167.879 152.817C167.878 152.817 167.878 152.817 167.878 152.817C167.878 152.817 167.878 152.817 167.878 152.817C167.878 152.817 167.878 152.817 167.878 152.817C167.878 152.817 167.878 152.817 168.226 153.595C168.575 154.374 168.575 154.374 168.575 154.374C168.575 154.374 168.575 154.374 168.575 154.374C168.575 154.374 168.576 154.374 168.576 154.373C168.577 154.373 168.578 154.373 168.579 154.372C168.581 154.371 168.584 154.37 168.588 154.368C168.596 154.364 168.607 154.359 168.621 154.353C168.649 154.34 168.689 154.322 168.739 154.298C168.84 154.25 168.981 154.182 169.151 154.096C169.488 153.924 169.943 153.679 170.402 153.388C170.855 153.102 171.346 152.752 171.733 152.364C172.086 152.011 172.52 151.463 172.52 150.786H170.814ZM142.546 126.773C145.644 123.095 150.093 121.069 154.123 121.729L154.398 120.046C149.626 119.264 144.617 121.666 141.241 125.674L142.546 126.773ZM154.117 121.728C154.698 121.828 155.269 121.981 155.822 122.187L156.416 120.588C155.764 120.345 155.09 120.164 154.404 120.047L154.117 121.728ZM169.944 123.305C173.218 120.307 177.259 119.292 180.445 120.765L181.161 119.216C177.15 117.363 172.388 118.755 168.792 122.047L169.944 123.305ZM180.444 120.765C180.915 120.983 181.361 121.25 181.775 121.563L182.802 120.201C182.292 119.816 181.742 119.486 181.162 119.217L180.444 120.765Z" fill="#050504"/>
<path d="M157.147 160.113C158.831 164.053 164.66 164.999 167.316 164.553" stroke="#050504" stroke-width="1.70598" stroke-miterlimit="10" stroke-linecap="round"/>
<path d="M154.029 140.886C155.789 140.886 157.215 138.929 157.215 136.515C157.215 134.101 155.789 132.145 154.029 132.145C152.269 132.145 150.842 134.101 150.842 136.515C150.842 138.929 152.269 140.886 154.029 140.886Z" fill="#050504"/>
<path d="M156.124 134.937C155.271 131.69 151.006 131.185 147.921 133.887" stroke="#050504" stroke-width="1.70598" stroke-linecap="round"/>
<path d="M178.955 139.308C180.715 139.308 182.141 137.351 182.141 134.937C182.141 132.523 180.715 130.566 178.955 130.566C177.195 130.566 175.768 132.523 175.768 134.937C175.768 137.351 177.195 139.308 178.955 139.308Z" fill="#050504"/>
<path d="M181.051 133.359C180.198 130.112 175.932 129.607 172.848 132.309" stroke="#050504" stroke-width="1.70598" stroke-linecap="round"/>
<circle cx="144.5" cy="144.156" r="94" stroke="#495ECA" stroke-width="5"/>
</g>
<circle cx="219.081" cy="83.2914" r="11.1664" fill="white"/>
<path d="M233.017 79.3855C232.432 78.7755 231.827 78.1448 231.599 77.5922C231.389 77.0845 231.376 76.2436 231.364 75.4303C231.341 73.9168 231.315 72.2014 230.122 71.0089C228.93 69.8163 227.215 69.7904 225.701 69.7676C224.888 69.7553 224.047 69.7426 223.539 69.5325C222.987 69.304 222.356 68.6991 221.746 68.114C220.674 67.0862 219.459 65.9214 217.84 65.9214C216.22 65.9214 215.006 67.0862 213.934 68.114C213.324 68.6991 212.693 69.304 212.141 69.5325C211.633 69.7426 210.792 69.7553 209.979 69.7676C208.465 69.7904 206.75 69.8163 205.557 71.0089C204.365 72.2014 204.339 73.9168 204.316 75.4303C204.304 76.2436 204.291 77.0845 204.081 77.5922C203.853 78.1447 203.248 78.7755 202.663 79.3855C201.635 80.4571 200.47 81.6719 200.47 83.2914C200.47 84.9109 201.635 86.1256 202.663 87.1972C203.248 87.8073 203.853 88.438 204.081 88.9906C204.291 89.4983 204.304 90.3392 204.316 91.1525C204.339 92.666 204.365 94.3813 205.557 95.5739C206.75 96.7664 208.465 96.7923 209.979 96.8152C210.792 96.8275 211.633 96.8402 212.141 97.0503C212.693 97.2788 213.324 97.8837 213.934 98.4688C215.006 99.4965 216.22 100.661 217.84 100.661C219.459 100.661 220.674 99.4965 221.746 98.4688C222.356 97.8837 222.987 97.2788 223.539 97.0503C224.047 96.8402 224.888 96.8275 225.701 96.8152C227.215 96.7923 228.93 96.7664 230.122 95.5739C231.315 94.3813 231.341 92.666 231.364 91.1525C231.376 90.3392 231.389 89.4983 231.599 88.9906C231.827 88.4381 232.432 87.8073 233.017 87.1972C234.045 86.1257 235.21 84.9109 235.21 83.2914C235.21 81.6719 234.045 80.4572 233.017 79.3855ZM225.521 80.4668L216.422 89.1518C216.191 89.372 215.884 89.495 215.565 89.495C215.246 89.495 214.939 89.372 214.709 89.1518L210.159 84.8093C210.041 84.6968 209.947 84.5622 209.881 84.4131C209.815 84.2641 209.779 84.1035 209.775 83.9406C209.772 83.7776 209.8 83.6156 209.859 83.4636C209.917 83.3116 210.006 83.1727 210.118 83.0548C210.231 82.9369 210.365 82.8423 210.514 82.7765C210.664 82.7107 210.824 82.6748 210.987 82.6711C211.15 82.6673 211.312 82.6957 211.464 82.7545C211.616 82.8134 211.755 82.9017 211.873 83.0142L215.565 86.539L223.807 78.6717C223.925 78.5592 224.064 78.4709 224.216 78.412C224.368 78.3532 224.53 78.3248 224.693 78.3286C224.856 78.3323 225.016 78.3682 225.166 78.434C225.315 78.4998 225.449 78.5944 225.562 78.7123C225.674 78.8302 225.762 78.9691 225.821 79.1211C225.88 79.2731 225.908 79.4351 225.905 79.5981C225.901 79.761 225.865 79.9216 225.799 80.0706C225.733 80.2197 225.638 80.3543 225.521 80.4668V80.4668Z" fill="#FFA45A"/>
<defs>
<clipPath id="clip0_231_937">
<rect x="48" y="47.6558" width="193" height="193" rx="96.5" fill="white"/>
</clipPath>
</defs>
</svg>
